<svg width="114" height="66" viewBox="0 0 114 66" fill="none" xmlns="http://www.w3.org/2000/svg">
<path d="M112.998 41.42C112.978 41.38 112.928 41.31 112.838 41.29L104.158 38.65C104.048 38.65 103.948 38.73 103.918 38.83C100.188 50.37 92.758 56.98 83.518 56.98C82.898 56.98 82.268 56.95 81.628 56.89C74.498 56.24 69.148 51.29 67.668 43.96L67.618 43.71L67.778 43.52C75.878 34.02 83.968 21.19 91.838 5.38C91.878 5.29 91.868 5.20998 91.848 5.16998C91.838 5.12998 91.798 5.05999 91.718 5.01999L83.528 1C83.448 1 83.348 1.03998 83.298 1.13998C77.188 13.41 70.858 24.05 65.468 31.1L64.788 31.99L64.548 30.9C60.018 9.81999 50.768 0 35.458 0C15.448 0 4.51802 15.39 0.968018 29.8C-1.35198 39.22 0.568027 49.37 5.97803 56.29C10.728 62.35 17.848 65.56 26.578 65.56C38.458 65.56 48.828 61.02 59.218 51.27L59.768 50.76L60.048 51.45C63.678 60.29 72.148 65.56 82.698 65.56C96.608 65.56 108.228 56.39 112.998 41.62C113.048 41.53 113.018 41.46 112.998 41.42ZM56.538 40.68C46.718 51.29 36.648 56.67 26.598 56.67C21.098 56.67 16.568 54.6 13.508 50.69C9.808 45.97 8.55798 38.84 10.238 32.08C14.478 14.97 26.298 8.88998 35.128 8.88998C40.478 8.88998 53.288 11.95 56.688 40.26L56.718 40.5L56.538 40.68Z" fill="black"/>
</svg>
