<svg width="209" height="48" viewBox="0 0 209 48" fill="none" xmlns="http://www.w3.org/2000/svg">
<path d="M33.34 5.57001H19.84C18.91 5.57001 18.04 6.11001 17.64 6.95001L0 43.32H6.24002C6.36002 43.32 6.47002 43.25 6.52002 43.14L10.14 35.29H42.94L46.56 43.14C46.61 43.25 46.72 43.32 46.84 43.32H53.14L35.55 6.95001C35.14 6.11001 34.28 5.57001 33.34 5.57001ZM12.44 30.32L21.01 11.74C21.28 11.15 21.88 10.76 22.54 10.76H30.55C31.2 10.76 31.8 11.14 32.08 11.74L40.65 30.32H12.44ZM147.46 5.57001H124.76C123.75 5.57001 122.92 6.39 122.92 7.41V43.17C122.92 43.25 122.99 43.32 123.07 43.32H128.73C128.81 43.32 128.88 43.25 128.88 43.17V36.54H147.45C154.92 36.54 162.65 30.75 162.65 21.06C162.66 13.61 156.85 5.57001 147.46 5.57001ZM146.91 31.5H128.89V12.09C128.89 11.33 129.51 10.71 130.27 10.71H146.92C152.86 10.71 156.54 16.11 156.54 21.11C156.53 26.13 152.66 31.5 146.91 31.5ZM185.75 5.57001H169.52C168.51 5.57001 167.68 6.39 167.68 7.41V41.49C167.68 42.5 168.5 43.33 169.52 43.33H185.75C199.96 43.33 208.79 36.1 208.79 24.45C208.79 12.8 199.96 5.57001 185.75 5.57001ZM185.26 38.18H175.03C174.27 38.18 173.65 37.56 173.65 36.8V12.09C173.65 11.33 174.27 10.71 175.03 10.71H185.26C196.16 10.71 202.66 15.84 202.66 24.44C202.66 33.04 196.16 38.18 185.26 38.18ZM119.97 29.49L114.82 27.93C114.76 27.93 114.7 27.98 114.68 28.04C112.47 34.89 108.06 38.81 102.57 38.81C102.2 38.81 101.83 38.79 101.45 38.76C97.22 38.37 94.04 35.43 93.16 31.09L93.13 30.94L93.23 30.83C98.03 25.19 102.84 17.58 107.51 8.19C107.54 8.14 107.53 8.09001 107.52 8.07001C107.51 8.05001 107.49 8.01001 107.44 7.98001L102.58 5.60001C102.54 5.60001 102.48 5.61999 102.45 5.67999C98.83 12.96 95.07 19.28 91.87 23.46L91.47 23.99L91.33 23.34C88.64 10.83 83.15 5 74.07 5C62.19 5 55.71 14.14 53.6 22.69C52.22 28.28 53.36 34.31 56.58 38.41C59.4 42.01 63.62 43.91 68.8 43.91C75.85 43.91 82.01 41.21 88.17 35.43L88.49 35.13L88.66 35.54C90.82 40.78 95.84 43.92 102.1 43.92C110.36 43.92 117.25 38.48 120.09 29.71C120.11 29.66 120.09 29.61 120.08 29.59C120.05 29.55 120.02 29.51 119.97 29.49ZM86.55 29.13C80.72 35.43 74.74 38.62 68.78 38.62C65.51 38.62 62.83 37.39 61.01 35.07C58.82 32.27 58.07 28.04 59.07 24.03C61.59 13.87 68.6 10.27 73.84 10.27C77.02 10.27 84.62 12.08 86.63 28.89L86.65 29.03L86.55 29.13Z" fill="black"/>
</svg>
