<svg width="540" height="467" viewBox="0 0 540 467" fill="none" xmlns="http://www.w3.org/2000/svg">
<g opacity="0.2" style="mix-blend-mode:darken">
<path d="M328.91 461.473C302.237 455.92 97.6492 454.265 100.42 436.217C108.041 413.311 229.579 422.71 277.643 411.147C308.56 403.709 546.45 405.247 539.868 440.996C533.287 476.744 355.583 467.026 328.91 461.473Z" fill="black"/>
</g>
<path d="M514.581 427.455C508.207 465.772 388.145 453.37 328.91 442.379L448.964 375.441C475.06 373.706 518.795 402.123 514.581 427.455Z" fill="white"/>
<path d="M476.332 421.543C476.332 430.552 448.106 433.343 413.287 433.343C378.468 433.343 350.242 430.552 350.242 421.543C350.242 412.534 378.468 405.23 413.287 405.23C448.106 405.23 476.332 412.534 476.332 421.543Z" fill="black" fill-opacity="0.12"/>
<path d="M336.299 374.275C334.673 385.73 333.921 407.043 337.602 420.844C338.377 423.745 341.007 425.785 344.048 425.918C379.478 427.513 434.468 427.877 454.293 426.438C475.04 424.93 478.257 411.915 475.386 404.385C473.056 398.265 465.882 391.006 454.369 386.886C439.922 381.713 416.944 371.114 416.944 371.114L336.299 374.275Z" fill="#F1A058"/>
<path d="M163.217 340.317C154.778 335.891 138.455 329.401 126.744 328.387C124.28 328.175 121.982 329.617 121.048 331.91C110.149 358.57 94.863 400.532 90.5743 416.096C86.0838 432.382 95.3014 438.461 101.928 438.352C107.309 438.27 114.897 434.798 121.232 427.135C129.185 417.52 143.67 402.888 143.67 402.888L163.217 340.322L163.217 340.317Z" fill="#F1A058"/>
<path d="M249.932 289.314L232.958 358.037L160.822 339.478C158.699 338.778 156.406 339.937 155.712 342.07L136.315 404.197C135.597 406.379 136.783 409.793 139.038 409.36C218.467 394.145 261.108 436.695 288.384 399.684C303.938 373.132 326.832 303.896 326.832 303.896L249.932 289.314Z" fill="#8DCEFA"/>
<path d="M174.421 350.399C217.029 343.457 261.65 360.937 254.093 375.734C246.535 390.53 222.688 348.972 247.511 311.526" stroke="black" stroke-width="6.88" stroke-linecap="round" stroke-linejoin="round"/>
<path d="M354.203 7.81785C376.52 -1.22254 406.211 20.1908 420.517 55.646C434.824 91.1011 428.33 127.172 406.012 136.212C405.899 136.258 405.785 136.301 405.671 136.346L386.115 144.268L382.763 135.963C366.065 129.895 349.368 112.347 339.698 88.3839C330.028 64.4198 329.862 40.1751 337.66 24.185L331.14 17.4116L352.471 8.58947C353.037 8.314 353.614 8.05624 354.203 7.81785Z" fill="#98A2B3"/>
<path d="M384.988 144.764C407.306 135.723 413.8 99.6526 399.493 64.1974C385.187 28.7422 355.497 7.32883 333.179 16.3692C310.862 25.4096 304.367 61.4804 318.674 96.9355C332.981 132.391 362.671 153.804 384.988 144.764Z" fill="#667085"/>
<path d="M326.799 174.765L307.941 165.502C307.941 165.502 309.218 141.942 301.566 116.075C292.678 117.484 280.241 112.103 287.071 101.16C282.896 93.0358 282.952 80.1042 291.509 72.1883C300.065 64.266 316.003 66.0032 322.326 73.0019C328.643 80.0073 328.767 86.8787 327.652 91.8672C342.174 124.506 340.076 146.157 326.793 174.772L326.799 174.765Z" fill="#FFE6D2"/>
<path d="M136.294 148.408C132.416 145.091 128.394 139.521 129.254 130.119C130.118 120.725 141.824 109.744 153.416 110.933C165.008 112.121 172.799 122.429 174.325 131.433C186.351 136.077 179.623 147.858 171.676 152.08C181.052 177.371 196.187 195.442 196.187 195.442L186.66 214.194C158.894 199.297 144.243 183.238 136.302 148.404L136.294 148.408Z" fill="#FFE6D2"/>
<path d="M85.0963 160.706C82.1574 160.504 79.5416 158.471 78.7401 155.463C77.7243 151.675 79.9685 147.778 83.7495 146.766L359.328 73.7716C363.109 72.7538 366.998 75.0022 368.008 78.7906C369.023 82.5794 366.779 86.4761 362.998 87.4875L87.4203 160.482C86.6407 160.691 85.8576 160.765 85.0958 160.712L85.0963 160.706Z" fill="black"/>
<path d="M134.385 170.306C163.716 231.332 212.033 246.191 226.329 241.353L235.682 280.572L332.674 235.452C330.25 225.387 309.119 204.215 309.119 204.215C348.263 171.589 342.374 126.818 338.563 107.729L294.57 120.572C298.718 148.334 303.923 170.306 257.852 189.291C212.562 202.347 191.343 179.573 175.409 151.808" fill="#479EEF"/>
<path d="M242.449 182.773L243.303 191.025C243.303 191.025 254.252 196.204 267.677 187.037L265.354 177.686L242.449 182.779V182.773Z" fill="#FFE6D2"/>
<path d="M228.047 172.563C228.047 172.563 218.262 177.427 213.133 169.592C208.005 161.757 214.406 156.728 218.751 154.854C217.345 150.366 216.296 147.095 216.296 147.095C216.296 147.095 228.575 133.46 242.293 130.769C256.01 128.079 268.436 135.315 268.436 135.315L270.606 141.798C275.371 140.625 280.786 141.721 282.612 147.095C284.432 152.469 281.142 156.989 274.818 158.353C276.574 166.29 274.767 178.498 255.202 182.896C240.448 186.211 233.137 180.123 228.047 172.556V172.563Z" fill="#FFE6D2"/>
<path d="M258.395 131.651C261.798 138.434 270.426 142.08 272.405 140.767C271.47 138.517 269.103 132.811 269.103 132.811C269.103 132.811 261.359 131.396 258.395 131.651Z" fill="#98A2B3"/>
<path d="M255.264 144.444C254.984 144.508 254.685 144.502 254.386 144.425C243.093 141.429 237.984 134.238 237.767 133.938C237.182 133.097 237.385 131.93 238.232 131.338C239.072 130.751 240.229 130.955 240.821 131.797C240.891 131.899 245.466 138.197 255.34 140.823C256.333 141.085 256.925 142.105 256.664 143.099C256.486 143.794 255.926 144.298 255.27 144.444H255.264Z" fill="#98A2B3"/>
<path d="M244.033 146.026C243.696 146.103 243.333 146.083 242.983 145.956C242.729 145.867 236.767 143.61 233.128 139.581C232.434 138.816 232.491 137.637 233.255 136.942C234.018 136.247 235.195 136.304 235.889 137.069C238.917 140.416 244.236 142.431 244.287 142.456C245.254 142.82 245.738 143.891 245.375 144.859C245.14 145.465 244.625 145.892 244.027 146.026H244.033Z" fill="#98A2B3"/>
<path d="M229.637 138.195C230.858 146.699 227.511 153.52 223.032 156.638C220.156 158.633 219.323 156.568 217.452 154.885C215.588 153.202 215.486 149.345 215.486 149.345L229.637 138.195Z" fill="#98A2B3"/>
<path d="M277.073 158.174C276.5 158.302 275.902 158.391 275.278 158.436C274.254 158.519 273.363 157.741 273.281 156.715C273.198 155.688 273.968 154.796 274.998 154.713C276.914 154.566 278.441 153.89 279.414 152.762C280.375 151.634 280.807 150.072 280.655 148.242C280.477 145.992 279.541 144.054 278.103 142.926C276.595 141.753 274.515 141.383 271.894 141.823C270.882 141.995 269.921 141.307 269.749 140.293C269.578 139.279 270.252 138.317 271.276 138.145C275.87 137.367 278.765 138.712 280.394 139.981C282.653 141.746 284.103 144.647 284.364 147.943C284.593 150.786 283.861 153.285 282.239 155.185C280.954 156.689 279.185 157.709 277.066 158.181L277.073 158.174Z" fill="black"/>
<path d="M225.142 175.807C217.501 177.502 213.314 173.652 211.081 169.802C209.688 167.398 209.071 163.165 210.572 159.729C211.501 157.619 213.613 154.878 218.43 153.807C219.435 153.584 220.428 154.222 220.65 155.222C220.873 156.223 220.237 157.224 219.238 157.447C216.591 158.034 214.822 159.309 213.989 161.228C212.933 163.65 213.537 166.602 214.307 167.927C218.322 174.857 225.225 172.077 227.496 171.166C228.444 170.783 229.532 171.242 229.914 172.205C230.296 173.161 229.838 174.245 228.877 174.627C227.547 175.169 226.3 175.552 225.142 175.807Z" fill="black"/>
<path d="M253.924 172.804C250.927 173.467 247.771 173.072 245.328 171.625C243.184 170.356 241.937 168.463 241.81 166.302C241.753 165.339 242.484 164.517 243.439 164.459C244.393 164.402 245.22 165.135 245.277 166.091C245.347 167.341 246.302 168.157 247.091 168.622C248.923 169.706 252.136 170.152 255.177 168.705C256.043 168.29 257.08 168.66 257.493 169.527C257.907 170.394 257.538 171.433 256.673 171.848C255.788 172.275 254.859 172.593 253.918 172.804H253.924Z" fill="black"/>
<path d="M224.535 168.845C223.772 169.018 222.957 168.648 222.601 167.908C222.448 167.609 221.061 165.072 217.689 165.441C216.735 165.543 215.876 164.855 215.774 163.899C215.672 162.942 216.346 162.082 217.314 161.98C223.243 161.33 225.636 166.187 225.731 166.391C226.145 167.258 225.776 168.297 224.91 168.712C224.783 168.769 224.662 168.814 224.535 168.839V168.845Z" fill="#F5C062"/>
<path d="M247.071 156.261C248.35 155.878 248.979 154.201 248.477 152.525C247.968 150.848 246.524 149.803 245.251 150.185C243.972 150.574 243.342 152.244 243.845 153.921C244.348 155.598 245.798 156.643 247.071 156.261Z" fill="black"/>
<path d="M254.956 154.101C256.26 153.815 257.011 152.189 256.629 150.481C256.247 148.772 254.886 147.618 253.581 147.905C252.277 148.192 251.526 149.818 251.908 151.526C252.29 153.234 253.651 154.388 254.956 154.101Z" fill="black"/>
<path d="M244.111 162.688C239.791 163.645 236.311 161.796 234.682 157.614C233.804 155.357 233.028 152.973 234.071 150.819C234.93 149.034 236.941 147.676 240.205 146.662C243.475 145.649 245.899 145.642 247.617 146.63C249.691 147.822 250.391 150.232 250.938 152.591C252.02 157.289 249.825 160.967 245.072 162.44C244.741 162.535 244.423 162.618 244.111 162.688ZM242.139 147.433C241.642 147.542 241.127 147.682 240.574 147.854C237.653 148.759 235.891 149.907 235.191 151.36C234.447 152.903 234.885 154.726 235.84 157.168C237.348 161.037 240.58 162.529 244.703 161.248C248.826 159.966 250.658 156.919 249.729 152.865C249.144 150.309 248.482 148.555 247 147.708C245.861 147.051 244.264 146.962 242.139 147.433Z" fill="#479EEF"/>
<path d="M259.537 157.919C255.217 158.875 251.736 157.026 250.108 152.845C249.23 150.588 248.453 148.204 249.497 146.049C250.356 144.264 252.366 142.906 255.63 141.893C258.901 140.879 261.325 140.873 263.043 141.861C265.117 143.053 265.817 145.463 266.364 147.821C267.446 152.519 265.257 156.198 260.498 157.67C260.167 157.766 259.849 157.849 259.537 157.919ZM257.558 142.658C257.062 142.766 256.547 142.906 255.993 143.078C253.073 143.984 251.304 145.131 250.61 146.584C249.866 148.127 250.305 149.95 251.259 152.392C252.767 156.261 255.999 157.753 260.122 156.472C264.245 155.191 266.078 152.143 265.149 148.089C264.563 145.533 263.902 143.78 262.419 142.932C261.28 142.275 259.683 142.186 257.558 142.658Z" fill="#479EEF"/>
<path d="M256.801 165.172C256.012 165.351 255.185 164.949 254.841 164.184C254.447 163.311 254.841 162.278 255.719 161.883C256.451 161.558 256.731 160.997 256.833 160.691C256.96 160.308 256.96 159.9 256.814 159.639C256.05 158.243 254.313 158.931 253.969 159.084C253.091 159.473 252.067 159.084 251.673 158.205C251.278 157.331 251.673 156.298 252.551 155.903C255.477 154.596 258.487 155.444 259.855 157.975C260.466 159.091 260.561 160.487 260.116 161.806C259.626 163.266 258.563 164.42 257.132 165.064C257.023 165.121 256.915 165.153 256.794 165.179L256.801 165.172Z" fill="black"/>
<path d="M259.347 140.205C259.067 140.268 258.768 140.268 258.476 140.186C258.024 140.064 247.265 137.158 244.014 128.94C243.632 127.984 244.103 126.9 245.057 126.518C246.005 126.142 247.093 126.607 247.475 127.563C250.045 134.047 259.328 136.552 259.417 136.571C260.41 136.832 261.008 137.852 260.747 138.847C260.562 139.555 260.009 140.058 259.347 140.205Z" fill="#98A2B3"/>
<path d="M274.868 152.808C274.76 152.833 274.645 152.846 274.531 152.846C273.57 152.872 272.775 152.113 272.749 151.15C272.654 147.109 274.773 145.387 275.021 145.209L277.108 147.988L277.158 147.95C277.12 147.982 276.179 148.836 276.23 151.067C276.249 151.915 275.663 152.636 274.874 152.808H274.868Z" fill="#F5C062"/>
<path d="M261.51 182.882C260.912 183.016 260.295 183.124 259.672 183.214C258.654 183.36 257.712 182.646 257.572 181.626C257.426 180.606 258.126 179.663 259.156 179.523C264.654 178.751 269.088 175.946 271.659 171.624C274.579 166.709 274.764 160.169 272.174 153.201C271.818 152.238 272.308 151.161 273.268 150.804C274.229 150.447 275.304 150.938 275.661 151.9C278.651 159.952 278.365 167.627 274.853 173.537C272.034 178.267 267.237 181.607 261.504 182.882H261.51Z" fill="black"/>
<path d="M269.301 136.565C261.615 134.506 253.541 130.956 242.355 134.876C231.17 138.803 222.676 147.199 217.395 153.618C215.257 156.219 211.936 151.559 211.764 147.116C211.574 142.328 212.916 143.278 213.788 138.803C214.532 134.978 214.106 132.135 213.711 129.285C212.751 122.343 213.501 117.345 223.032 111.104C230.617 106.132 243.8 103.678 258.669 116.013C263.791 120.259 265.407 121.578 267.774 122.821C274.327 126.245 274.028 137.84 269.301 136.572V136.565Z" fill="#F1A058"/>
<path d="M223.336 131.585C222.394 131.796 221.44 131.241 221.153 130.31C219.881 126.103 217.393 121.972 217.374 121.934C216.846 121.054 217.126 119.907 218.004 119.378C218.882 118.848 220.027 119.129 220.555 120.009C220.67 120.194 223.31 124.586 224.71 129.239C225.009 130.221 224.456 131.267 223.469 131.56C223.425 131.56 223.38 131.579 223.336 131.592V131.585Z" fill="#F8D46E"/>
<path d="M231.395 127.264C230.548 127.449 229.664 127.028 229.295 126.206C227.475 122.158 223.009 119.276 222.964 119.245C222.099 118.69 221.845 117.536 222.392 116.669C222.945 115.802 224.097 115.547 224.962 116.095C225.185 116.236 230.421 119.614 232.686 124.67C233.106 125.613 232.686 126.709 231.751 127.137C231.63 127.194 231.516 127.232 231.395 127.264Z" fill="#F8D46E"/>
<path d="M241.811 124.198C241.117 124.351 240.373 124.103 239.915 123.497C236.568 119.035 230.32 116.734 230.257 116.714C229.289 116.364 228.787 115.299 229.137 114.33C229.487 113.361 230.549 112.858 231.516 113.208C231.815 113.317 238.884 115.918 242.886 121.26C243.503 122.082 243.338 123.255 242.511 123.867C242.294 124.026 242.046 124.141 241.798 124.192L241.811 124.198Z" fill="#F8D46E"/>
<path d="M219.503 142.647C218.898 142.781 218.243 142.609 217.772 142.137C217.053 141.404 217.053 140.225 217.785 139.504C225.992 131.357 247.014 122.962 259.427 122.86C260.458 122.847 261.298 123.682 261.298 124.708C261.304 125.735 260.484 126.576 259.453 126.582C248 126.672 227.927 134.672 220.4 142.15C220.152 142.405 219.833 142.57 219.503 142.647Z" fill="#F8D46E"/>
<path d="M258.859 192.986C253.528 194.742 247.385 195.4 243.305 193.853C242.342 193.488 241.864 192.414 242.222 191.45C242.587 190.484 243.658 190.006 244.621 190.365C250.315 192.525 262.555 188.876 265.638 184.968C266.274 184.161 267.444 184.025 268.255 184.662C269.06 185.299 269.196 186.47 268.56 187.283C266.806 189.509 263.087 191.59 258.852 192.987L258.859 192.986Z" fill="#F5C062"/>
<path d="M162.143 117.689C162.143 117.689 180.692 129.963 171.575 140.485L165.486 142.312C165.486 142.312 165.673 144.438 159.718 147.502C153.762 150.572 146.794 143.816 146.794 143.816C146.794 143.816 145.937 152.318 142.086 153.241C138.236 154.165 129.948 138.258 129.948 138.258L133.751 127.563L162.151 117.685L162.143 117.689Z" fill="#FFE6D2"/>
<path d="M174.324 131.432C174.324 131.432 180.7 133.417 180.549 137.117C180.391 140.815 181.807 142.454 176.428 148.444C171.048 154.439 169.686 151.788 169.686 151.788L162.55 149.171L160.316 147.598L174.324 131.432Z" fill="#FFE6D2"/>
<path d="M170.632 150.352C175.762 147.26 179.409 142.814 179.697 139.285C179.831 137.614 179.219 136.222 177.814 135.016C176.973 134.294 176.876 133.021 177.598 132.172C178.318 131.329 179.588 131.232 180.436 131.956C182.82 134.002 183.955 136.662 183.709 139.619C183.304 144.453 178.985 150.014 172.713 153.803C171.759 154.374 170.522 154.07 169.952 153.114C169.705 152.699 169.619 152.231 169.685 151.786C169.768 151.213 170.099 150.671 170.64 150.347L170.632 150.352Z" fill="#F5C062"/>
<path d="M138.395 173.827C137.664 173.787 136.973 173.373 136.616 172.676C136.08 171.632 136.488 170.346 137.537 169.809L174.08 150.968C175.123 150.432 176.407 150.84 176.942 151.891C177.478 152.935 177.07 154.222 176.021 154.758L139.478 173.599C139.13 173.778 138.757 173.853 138.388 173.833L138.395 173.827Z" fill="black"/>
<path d="M129.058 133.979C130.136 133.721 131.218 134.385 131.474 135.471C133.291 143.14 136.573 149.038 139.841 150.486C141.046 151.019 142.228 150.93 143.544 150.203C145.596 149.068 145.18 146.957 140.755 136.085C140.23 134.784 139.658 133.39 139.065 131.903C138.662 130.895 139.131 129.749 140.127 129.309C141.124 128.87 142.284 129.304 142.749 130.283L142.804 130.392C144.92 134.82 151.351 148.307 157.246 146.862C159.349 146.345 161.191 144.713 162.219 142.454C161.371 141.968 160.505 141.379 159.622 140.692C153.756 136.169 147.622 127.702 148.185 123.151C148.456 120.995 149.679 119.52 151.534 119.131C155.476 118.306 161.147 122.86 163.976 127.642C166.502 131.908 167.536 136.235 167.013 140.154C167.825 140.345 168.538 140.328 169.103 140.104C170.622 139.5 171.643 137.802 171.943 135.449C172.503 130.957 170.268 123.621 162.142 117.69C161.244 117.031 161.049 115.777 161.7 114.875C162.357 113.974 163.615 113.781 164.509 114.431C170.469 118.782 177.042 127.029 175.936 135.944C175.442 139.805 173.51 142.67 170.601 143.84C169.207 144.399 167.637 144.458 165.921 144.025C164.394 147.448 161.525 149.955 158.199 150.775C154.678 151.633 151.472 149.964 148.699 147.231C148.878 149.011 148.692 151.946 145.493 153.723C143.094 155.057 140.571 155.211 138.22 154.168C131.531 151.207 128.377 139.814 127.569 136.399C127.509 136.144 127.501 135.89 127.536 135.648C127.647 134.858 128.237 134.17 129.052 133.977L129.058 133.979ZM160.533 129.701C157.85 125.172 153.282 122.66 152.359 123.074C152.359 123.074 152.239 123.193 152.194 123.657C151.921 125.845 156.342 133.072 162.087 137.508C162.446 137.781 162.79 138.038 163.133 138.274C163.166 135.601 162.289 132.663 160.533 129.701Z" fill="#F5C062"/>
<path d="M288.562 84.1899C288.562 84.1899 281.079 105.164 294.676 108.09L300.639 105.888C300.639 105.888 301.76 107.702 308.363 106.571C314.967 105.44 316.495 95.852 316.495 95.852C316.495 95.852 322.269 102.131 325.906 100.555C329.543 98.9782 326.642 81.2698 326.642 81.2698L317.196 75.0041L288.568 84.1895L288.562 84.1899Z" fill="#FFE6D2"/>
<path d="M287.068 101.155C287.068 101.155 283.156 106.581 285.496 109.442C287.837 112.303 287.686 114.466 295.58 116.025C303.475 117.585 302.978 114.647 302.978 114.647L307.117 108.267L307.955 105.666L287.062 101.162L287.068 101.155Z" fill="#FFE6D2"/>
<path d="M302.987 114.647C303.299 114.96 303.517 115.387 303.567 115.869C303.681 116.973 302.876 117.963 301.767 118.077C294.483 118.823 287.692 116.977 284.475 113.353C282.506 111.133 281.821 108.333 282.501 105.257C282.739 104.169 283.818 103.487 284.898 103.72C285.984 103.958 286.663 105.039 286.432 106.121C286.029 107.934 286.377 109.42 287.482 110.673C289.828 113.323 295.409 114.683 301.363 114.072C301.99 114.007 302.578 114.238 302.987 114.647Z" fill="#F5C062"/>
<path d="M291.465 122.542C290.433 122.639 289.462 121.969 289.205 120.937C288.919 119.799 289.615 118.638 290.758 118.357L339.738 106.152C340.875 105.871 342.032 106.562 342.313 107.708C342.593 108.853 341.903 110.007 340.76 110.288L291.78 122.493C291.674 122.522 291.567 122.538 291.466 122.548L291.465 122.542Z" fill="black"/>
<path d="M326.992 77.7326C327.169 77.9067 327.31 78.115 327.42 78.3571C328.821 81.5777 333.119 92.5873 329.548 98.9759C328.293 101.227 326.187 102.617 323.463 102.993C319.842 103.496 317.936 101.259 317.011 99.7265C316.43 103.583 314.869 106.849 311.535 108.279C308.388 109.627 304.589 109.342 301.32 107.523C300.208 108.902 298.912 109.795 297.464 110.186C294.436 111.003 291.171 109.867 288.465 107.08C282.24 100.618 282.554 90.0655 284.712 83.0058C285.034 81.9443 286.163 81.3431 287.223 81.6661C288.282 81.989 288.882 83.1202 288.56 84.1816C285.613 93.814 288.226 101.027 291.363 104.285C293.012 105.983 294.843 106.723 296.423 106.298C297.013 106.14 297.586 105.72 298.126 105.086C295.361 102.271 293.588 98.1857 293.056 93.2562C292.455 87.737 294.263 80.6801 297.91 78.9687C299.632 78.1577 301.49 78.6093 303.003 80.1684C306.187 83.4683 306.345 93.9273 304.37 101.071C304.074 102.144 303.735 103.142 303.345 104.042C305.517 105.228 307.971 105.424 309.964 104.577C315.546 102.188 312.606 87.5355 311.648 82.7159L311.627 82.5958C311.414 81.5298 312.082 80.4849 313.143 80.2393C314.199 79.994 315.265 80.6295 315.548 81.6784C315.97 83.2295 316.342 84.6816 316.701 86.0387C319.676 97.3935 320.607 99.3341 322.932 99.0026C324.424 98.7937 325.417 98.1564 326.065 97.0042C327.813 93.8793 326.903 87.1915 323.76 79.9608C323.313 78.9414 323.781 77.7558 324.799 77.3149C325.562 76.9795 326.441 77.1732 327.012 77.7377L326.992 77.7326ZM300.103 101.238C300.238 100.84 300.365 100.429 300.484 99.9937C302.43 92.992 301.627 84.5537 300.099 82.9636C299.778 82.6197 299.617 82.5979 299.611 82.5983C298.624 82.8265 296.48 87.5795 297.044 92.8136C297.418 96.2328 298.478 99.1107 300.103 101.231L300.103 101.238Z" fill="#F5C062"/>
<path d="M303.44 199.452C304.19 198.581 305.503 198.484 306.372 199.235C312.365 204.415 326.296 218.546 334.225 233.866C334.753 234.887 334.355 236.144 333.336 236.674C332.317 237.203 331.063 236.804 330.535 235.783C322.944 221.117 309.441 207.389 303.656 202.389C302.787 201.637 302.691 200.322 303.44 199.452Z" fill="black"/>
<path d="M233.309 271.297L360.145 207.827C419.507 184.922 459.318 204.429 440.803 289.316C428.288 346.696 442.346 363.523 447.773 375.437C448.893 377.885 447.404 380.729 444.763 381.226L336.348 398.97C332.983 399.601 330.349 396.102 331.882 393.029L366.049 283.553C366.049 283.553 253.389 372 233.315 271.291L233.309 271.297Z" fill="#8DCEFA"/>
<path d="M363.29 283.385C363.688 282.128 365.028 281.432 366.283 281.831C367.537 282.23 368.232 283.572 367.834 284.829L327.025 413.773C326.627 415.03 325.287 415.726 324.033 415.327C322.778 414.929 322.083 413.586 322.481 412.329L363.29 283.385Z" fill="black"/>
<path d="M235.4 270.938C236.706 270.777 237.895 271.706 238.057 273.014L238.058 273.018C238.059 273.024 238.06 273.033 238.061 273.047C238.065 273.075 238.071 273.119 238.08 273.18C238.097 273.302 238.125 273.489 238.165 273.736C238.245 274.229 238.375 274.96 238.57 275.883C238.96 277.731 239.607 280.342 240.632 283.357C242.689 289.409 246.228 296.974 252.152 303.301C258.037 309.586 266.312 314.695 278.02 315.883C289.784 317.077 305.222 314.334 325.405 304.48C326.588 303.902 328.015 304.395 328.592 305.581C329.168 306.766 328.676 308.196 327.493 308.774C306.801 318.876 290.457 321.946 277.54 320.635C264.567 319.318 255.261 313.602 248.676 306.568C242.13 299.577 238.307 291.328 236.121 284.897C235.024 281.67 234.329 278.871 233.907 276.87C233.696 275.869 233.553 275.066 233.461 274.506C233.416 274.226 233.383 274.006 233.361 273.854C233.35 273.777 233.342 273.717 233.336 273.675C233.333 273.654 233.331 273.637 233.329 273.625C233.329 273.618 233.328 273.613 233.327 273.609C233.327 273.607 233.328 273.605 233.327 273.603C233.332 273.601 233.432 273.587 235.692 273.308L233.327 273.6C233.166 272.291 234.094 271.099 235.4 270.938Z" fill="black"/>
<path d="M69.3684 86.6991C91.3297 76.822 121.805 97.0979 137.436 131.987C153.067 166.876 147.936 203.167 125.974 213.044L125.973 213.044L125.974 213.046L106.397 221.85L102.733 213.673C85.8182 208.242 68.4714 191.338 57.9064 167.757C47.3412 144.175 46.2621 119.953 53.4531 103.68L49.8193 95.5687L67.6028 87.5698C68.1787 87.2604 68.7672 86.9695 69.3684 86.6991Z" fill="#667085"/>
<path d="M144.78 154.925C149.993 181.568 143.103 205.339 125.975 213.043L125.973 213.043L125.974 213.044L106.397 221.849L102.734 213.672C101.067 213.136 99.3963 212.488 97.7278 211.734L118.965 149.789L140.781 140.913L144.78 154.925Z" fill="#475467"/>
<path d="M104.39 223.274C126.351 213.397 131.483 177.106 115.852 142.217C100.22 107.328 69.7455 87.0514 47.7841 96.9289C25.8227 106.806 20.6912 143.097 36.3225 177.986C51.9538 212.875 82.4287 233.151 104.39 223.274Z" fill="#98A2B3"/>
<path d="M89.4841 154.022C93.2494 162.465 92.0075 171.248 86.715 173.641C81.4225 176.033 74.0822 171.126 70.3169 162.682C66.5515 154.238 67.7934 145.455 73.0859 143.063C78.3784 140.67 85.7187 145.578 89.4841 154.022Z" fill="#344054"/>
<path d="M64.3291 146.832L72.5902 143.508L86.3679 173.749L77.0826 177.972L64.3291 146.832Z" fill="#344054"/>
<path d="M80.6833 157.939C84.4487 166.382 83.2067 175.165 77.9142 177.558C72.6217 179.95 65.2815 175.043 61.5161 166.599C57.7507 158.155 58.9926 149.372 64.2851 146.98C69.5776 144.587 76.9179 149.495 80.6833 157.939Z" fill="black"/>
<path d="M306.742 435.442C283.741 429.333 228.801 426.649 204.207 426.071C204.207 421.212 226.723 416.006 254.089 413.576C281.454 411.147 288.382 388.934 314.709 388.934C341.035 388.933 338.957 408.023 346.578 408.023C387.799 398.305 384.335 426.071 389.878 426.071C432.485 418.435 454.655 447.589 442.531 453.489C364.244 459.389 335.493 443.077 306.742 435.442Z" fill="white"/>
</svg>
