<svg width="220" height="232" viewBox="0 0 220 232" fill="none" xmlns="http://www.w3.org/2000/svg">
<path d="M116.884 161.226C124.05 151.151 53.8454 114.511 47.4542 125.906C41.0631 137.301 111.348 169.006 116.884 161.226Z" fill="#F5C062"/>
<path d="M149.391 187.957C153.536 184.674 154.236 178.652 150.954 174.507C147.672 170.361 141.65 169.661 137.505 172.944C133.359 176.226 132.659 182.248 135.941 186.393C139.223 190.539 145.246 191.239 149.391 187.957Z" fill="#F8D46E"/>
<circle cx="208.483" cy="149.718" r="11.5146" fill="#479EEF"/>
<rect x="8.81641" y="61" width="25.498" height="25.498" rx="4" transform="rotate(20.2279 8.81641 61)" fill="#F8D46E"/>
<path d="M210.865 22.3539C213.492 19.822 211.556 15.3851 207.908 15.5941L190.507 16.6062C189.356 16.6733 188.237 16.2385 187.444 15.4125L175.342 2.85021C172.81 0.222601 168.373 2.16748 168.583 5.80759L169.594 23.212C169.662 24.3544 169.227 25.4743 168.401 26.2755L155.849 38.3728C153.222 40.9048 155.158 45.3417 158.806 45.1326L176.207 44.1205C177.349 44.0525 178.469 44.4873 179.27 45.3142L191.365 57.8675C193.896 60.4951 198.324 58.5572 198.124 54.9101L197.104 37.5047C197.036 36.3622 197.479 35.2434 198.306 34.4422L210.858 22.3449L210.865 22.3539Z" fill="#479EEF"/>
<path d="M182.145 143.206C189.975 133.533 128.717 67.209 113.518 78.7237C98.3187 90.2383 167.867 152.878 182.145 143.206Z" fill="#F8D46E"/>
<path d="M41.3528 221.125C48.6942 215.313 49.9346 204.641 44.1221 197.3C38.3096 189.959 27.6385 188.718 20.2971 194.531C12.9557 200.343 11.7154 211.014 17.5278 218.356C23.3403 225.697 34.0113 226.937 41.3528 221.125Z" fill="#8DCEFA"/>
</svg>
