<svg width="220" height="232" viewBox="0 0 220 232" fill="none" xmlns="http://www.w3.org/2000/svg">
<path d="M103.114 70.4267C95.9483 80.5019 166.153 117.142 172.544 105.747C178.935 94.3518 108.65 62.6471 103.114 70.4267Z" fill="#F5C062"/>
<path d="M70.6071 43.6963C66.4617 46.9784 65.7617 53.0006 69.0437 57.146C72.3258 61.2914 78.3481 61.9914 82.4935 58.7093C86.6389 55.4273 87.3389 49.405 84.0568 45.2596C80.7747 41.1142 74.7525 40.4142 70.6071 43.6963Z" fill="#F8D46E"/>
<circle cx="11.5147" cy="81.9351" r="11.5146" transform="rotate(-180 11.5147 81.9351)" fill="#479EEF"/>
<rect x="211.184" y="170.653" width="25.498" height="25.498" rx="4" transform="rotate(-159.772 211.184 170.653)" fill="#F8D46E"/>
<path d="M9.13333 209.299C6.50604 211.831 8.44239 216.268 12.0899 216.059L29.4915 215.047C30.6418 214.98 31.7614 215.414 32.5544 216.24L44.6562 228.803C47.1876 231.43 51.6249 229.485 51.415 225.845L50.4038 208.441C50.3358 207.298 50.7706 206.179 51.5974 205.377L64.1491 193.28C66.7764 190.748 64.8401 186.311 61.1925 186.52L43.791 187.532C42.6487 187.6 41.5291 187.166 40.7281 186.339L28.6333 173.785C26.1019 171.158 21.6736 173.096 21.8745 176.743L22.8937 194.148C22.9617 195.291 22.5189 196.409 21.692 197.211L9.14035 209.308L9.13333 209.299Z" fill="#479EEF"/>
<path d="M37.8528 88.4472C30.0228 98.1195 91.2807 164.444 106.48 152.929C121.679 141.415 52.1309 78.7746 37.8528 88.4472Z" fill="#F8D46E"/>
<path d="M178.645 10.5279C171.304 16.3403 170.063 27.0114 175.876 34.3528C181.688 41.6942 192.36 42.9346 199.701 37.1221C207.042 31.3096 208.283 20.6386 202.47 13.2971C196.658 5.95572 185.987 4.71537 178.645 10.5279Z" fill="#8DCEFA"/>
</svg>
