<svg width="300" height="300" viewBox="0 0 300 300" fill="none" xmlns="http://www.w3.org/2000/svg">
<path d="M169.36 146.414V254.759H134.348V146.414H169.36Z" fill="url(#paint0_linear_2812_1339)"/>
<path d="M156.324 48.6353C153.074 44.7789 147.124 44.8101 143.914 48.7002L109.076 90.9227C104.728 96.1923 108.476 104.145 115.308 104.145H185.734C192.605 104.145 196.34 96.1119 191.911 90.8578L156.324 48.6353Z" fill="#F7CC68"/>
<path d="M132.647 137.424V103.172H167.659V137.424C167.659 163.153 156.313 179.519 143.159 190.919C137.034 196.226 130.428 200.539 125.289 203.944C119.687 207.655 115.982 210.199 113.297 212.762C101.491 224.032 96.2384 240.877 96.2385 255H61.2266C61.2265 233.657 68.8632 206.775 89.1227 187.436C94.4542 182.347 100.875 178.12 105.953 174.756C111.493 171.085 116.122 168.019 120.229 164.46C127.538 158.126 132.647 150.806 132.647 137.424Z" fill="url(#paint1_linear_2812_1339)"/>
<path d="M168.144 137.424V103.172H133.132V137.424C133.132 163.153 144.478 179.519 157.632 190.919C163.757 196.226 170.363 200.539 175.502 203.944C181.104 207.655 184.809 210.199 187.494 212.762C199.3 224.032 204.553 240.877 204.553 255H239.564C239.564 233.657 231.928 206.775 211.668 187.436C206.337 182.347 199.916 178.12 194.838 174.756C189.298 171.085 184.669 168.019 180.562 164.46C173.253 158.126 168.144 150.806 168.144 137.424Z" fill="url(#paint2_linear_2812_1339)"/>
<defs>
<linearGradient id="paint0_linear_2812_1339" x1="152.19" y1="114.5" x2="152.19" y2="254.759" gradientUnits="userSpaceOnUse">
<stop stop-color="#F7CC68"/>
<stop offset="1" stop-color="#8DCEFA"/>
</linearGradient>
<linearGradient id="paint1_linear_2812_1339" x1="150.153" y1="103.415" x2="114.443" y2="255" gradientUnits="userSpaceOnUse">
<stop stop-color="#F7CC68"/>
<stop offset="0.736852" stop-color="#479EEF"/>
</linearGradient>
<linearGradient id="paint2_linear_2812_1339" x1="186.348" y1="115.804" x2="186.348" y2="255" gradientUnits="userSpaceOnUse">
<stop stop-color="#F7CC68"/>
<stop offset="1" stop-color="#ED7738"/>
</linearGradient>
</defs>
</svg>
