<svg width="240" height="240" viewBox="0 0 240 240" fill="none" xmlns="http://www.w3.org/2000/svg">
<path d="M189.01 61.1814C192.224 58.1505 197.287 58.299 200.318 61.5134C203.349 64.728 203.2 69.791 199.986 72.822L147.486 122.322C144.271 125.353 139.209 125.204 136.177 121.99C133.147 118.775 133.295 113.712 136.51 110.681L189.01 61.1814Z" fill="#F7CC68"/>
<path d="M59.9088 75.3295C62.9595 71.3508 47.3294 49.8316 40.7794 54.6789C34.2294 59.5263 56.8582 79.3083 59.9088 75.3295Z" fill="#479EEF"/>
<path d="M47.8512 85.0429C47.0052 89.2479 25.6638 83.3815 26.0061 77.3226C26.3484 71.2637 48.3339 77.9861 47.8512 85.0429Z" fill="#8DCEFA"/>
<path d="M73.9382 66.4918C80.2415 64.6297 75.9189 42.3512 69.6157 44.2134C63.3124 46.0755 66.4348 67.5791 73.9382 66.4918Z" fill="#FEB64A"/>
<path d="M158.666 72.002C177.537 72.002 202.539 93.0038 192.835 122.496C183.737 150.144 131.636 190.557 125.159 195.501L124.498 196.002C124.498 196.002 65.8659 151.988 56.1614 122.496C46.4569 93.0038 71.4594 72.002 90.3299 72.002C109.2 72.002 124.498 81.0872 124.498 101.941L124.501 101.453C124.737 80.8242 139.943 72.002 158.666 72.002Z" fill="#EE7F3D"/>
<path d="M117.51 126.681C120.724 123.65 125.787 123.799 128.818 127.013C131.849 130.228 131.7 135.291 128.486 138.322L75.9861 187.822C72.7715 190.853 67.7085 190.704 64.6775 187.49C61.6466 184.275 61.7951 179.212 65.0095 176.181L117.51 126.681Z" fill="#F7CC68"/>
<path d="M197.703 80.8095C201.16 84.5652 207.39 83.1417 208.874 78.2569L215.683 55.8318C217.152 50.9948 212.86 46.3698 207.927 47.4733L185.161 52.5661C180.201 53.6754 178.304 59.7384 181.746 63.4772L197.703 80.8095Z" fill="#F7CC68"/>
</svg>
