<svg width="240" height="240" viewBox="0 0 240 240" fill="none" xmlns="http://www.w3.org/2000/svg">
<path d="M122.335 82.2397C127.132 80.8522 127.314 54.3666 119.199 54.3832C111.084 54.3998 117.539 83.6272 122.335 82.2397Z" fill="#479EEF"/>
<path d="M106.93 82.903C103.768 85.7743 90.124 68.4635 93.9778 63.8083C97.8317 59.1532 111.486 77.5308 106.93 82.903Z" fill="#8DCEFA"/>
<path d="M138.804 83.4406C144.957 85.6715 154.653 65.2575 148.5 63.0266C142.347 60.7957 132.146 79.8796 138.804 83.4406Z" fill="#FEB64A"/>
<path d="M202.811 141.133C202.811 141.133 165.805 187.44 120.156 187.44C74.5062 187.44 37.5 141.133 37.5 141.133C37.5 141.133 74.5062 94.8262 120.156 94.8262C165.805 94.8262 202.811 141.133 202.811 141.133Z" fill="#FEF8E8"/>
<circle cx="119.658" cy="141.132" r="41.3278" fill="#479EEF"/>
<circle cx="119.658" cy="141.133" r="26.39" fill="black"/>
<path d="M138.345 144.598C140.571 143.855 140.675 140.743 138.499 139.855L128.116 135.626C127.43 135.346 126.9 134.784 126.668 134.085L123.119 123.441C122.377 121.215 119.262 121.116 118.377 123.288L114.146 133.673C113.87 134.355 113.307 134.885 112.605 135.121L101.97 138.67C99.7434 139.413 99.6395 142.525 101.815 143.413L112.198 147.643C112.88 147.919 113.41 148.482 113.646 149.183L117.194 159.82C117.936 162.046 121.043 162.147 121.936 159.974L126.162 149.586C126.439 148.904 127.006 148.377 127.708 148.14L138.343 144.591L138.345 144.598Z" fill="#F5C062"/>
<ellipse cx="104.72" cy="121.713" rx="11.4523" ry="9.95851" fill="#FFFEFE"/>
<path d="M196.753 79.81C198.377 78.2397 197.18 75.4879 194.925 75.6176L184.17 76.2453C183.459 76.2869 182.767 76.0172 182.277 75.505L174.797 67.714C173.232 66.0843 170.49 67.2905 170.619 69.5481L171.244 80.3421C171.286 81.0507 171.018 81.7452 170.507 82.2421L162.749 89.7447C161.125 91.315 162.321 94.0667 164.576 93.9371L175.332 93.3094C176.038 93.2672 176.73 93.5368 177.225 94.0497L184.7 101.835C186.265 103.465 189.002 102.263 188.878 100.001L188.248 89.2063C188.206 88.4978 188.48 87.8039 188.991 87.307L196.749 79.8044L196.753 79.81Z" fill="#479EEF"/>
</svg>
