<svg width="240" height="240" viewBox="0 0 240 240" fill="none" xmlns="http://www.w3.org/2000/svg">
<ellipse cx="130.766" cy="200.5" rx="69" ry="13.5" fill="#479EEF"/>
<path d="M78.1119 36.8414C71.9251 31.8662 62.8404 31.1522 55.0944 33.8029C46.8672 36.6183 41.2218 43.3129 38.9488 50.8477C36.5348 58.85 37.6638 67.4154 41.7608 74.6311C46.0297 82.1495 52.9683 88.2112 61.0418 92.3444C70.0725 96.9675 80.2033 99.3763 90.4599 100.875C98.0614 101.986 108.542 102.524 112.944 95.181C115.321 91.2156 114.379 86.3703 111.844 82.8075C109.231 79.1337 104.81 76.8413 100.423 75.2475C91.4584 71.9905 80.709 70.9478 71.175 73.4433C63.0031 75.5822 55.2188 80.5842 53.6418 88.6363C51.7367 98.364 59.267 106.342 65.8206 112.868C67.5489 114.589 69.2535 116.327 70.8194 118.175C72.6611 120.348 76.4228 117.602 74.577 115.424C69.1269 108.994 61.2067 103.631 58.7561 95.4454C57.7619 92.1244 57.8934 88.4794 59.8491 85.3819C61.5333 82.7143 64.3348 80.7078 67.3166 79.3451C74.6592 75.9895 83.4126 75.8388 91.195 77.2573C98.3657 78.5644 109.286 81.997 109.567 90.006C109.818 97.1849 100.131 97.6167 94.5546 97.0335C85.605 96.0976 76.5463 94.1518 68.3684 90.835C53.9937 85.0049 41.2852 72.7122 42.4987 57.3622C43.0234 50.7253 46.08 43.9344 52.2897 39.936C57.7058 36.4487 65.1281 35.5126 71.0963 37.8889C72.6235 38.497 73.9768 39.3484 75.2186 40.347C76.1673 41.1099 77.821 40.7462 78.5543 39.8578C79.393 38.8417 79.063 37.6063 78.1119 36.8414Z" fill="#F7CC68"/>
<path d="M113.474 81.6484C116.315 85.6417 117.567 91.3602 114.659 96.2095C112.04 100.578 107.659 102.478 103.211 103.174C98.7842 103.866 94.0207 103.417 90.1711 102.854C79.9591 101.362 69.729 98.9562 60.5204 94.3201C60.567 94.5043 60.6175 94.6888 60.6724 94.8722C61.7638 98.5175 64.1013 101.631 67.0012 104.726C68.4521 106.275 69.9888 107.764 71.5589 109.322C73.1107 110.861 74.6804 112.453 76.1027 114.131C76.9569 115.139 77.2451 116.36 76.9767 117.527C76.7259 118.616 76.036 119.479 75.2615 120.045C73.7648 121.139 71.1021 121.602 69.2932 119.468C67.7854 117.689 66.1317 116 64.4096 114.285C61.1427 111.032 57.4575 107.253 54.8532 102.997C52.3009 98.8259 50.694 94.0446 51.5957 88.7188C46.9008 85.0832 42.896 80.6809 40.0217 75.6189C35.6685 67.9519 34.4542 58.8226 37.0339 50.2705C39.4713 42.1906 45.5427 34.9581 54.4469 31.911C62.6678 29.0978 72.5145 29.774 79.3648 35.2825C80.1505 35.9143 80.7761 36.8177 80.9723 37.8982C81.1768 39.0244 80.8812 40.1806 80.0971 41.1307C79.3719 42.0093 78.3104 42.5211 77.304 42.6931C76.2959 42.8654 75.0108 42.7466 73.9649 41.9056C72.8442 41.0043 71.6617 40.2667 70.3567 39.7471C65.0347 37.628 58.2878 38.4529 53.3723 41.6179C47.8087 45.2004 44.9809 51.3462 44.4928 57.5198C43.7841 66.4849 48.285 74.4987 55.2898 80.6067C59.0343 75.9683 64.9274 73.0114 70.6686 71.5086C80.6598 68.8935 91.8273 69.9968 101.106 73.3679C105.591 74.9971 110.496 77.4625 113.474 81.6484ZM112.944 95.181C115.321 91.2156 114.379 86.3703 111.844 82.8075C109.231 79.1337 104.81 76.8413 100.423 75.2475L99.5782 74.9491C90.7882 71.9291 80.4111 71.0259 71.175 73.4433C64.9024 75.0851 58.8586 78.4141 55.6747 83.5143C47.564 77.112 41.9286 68.2942 42.4519 58.0797L42.4987 57.3622C43.007 50.9326 45.8916 44.3586 51.7171 40.3189L52.2897 39.936C57.5366 36.5576 64.6663 35.5739 70.5327 37.6762L71.0963 37.8889C72.6235 38.497 73.9768 39.3484 75.2186 40.347C76.1079 41.0621 77.6167 40.7874 78.4061 40.0186L78.5543 39.8578C79.393 38.8417 79.063 37.6063 78.1119 36.8414C71.9251 31.8662 62.8404 31.1522 55.0944 33.8029C46.8672 36.6183 41.2218 43.3129 38.9488 50.8477C36.6102 58.6001 37.597 66.8809 41.386 73.9511L41.7608 74.6311C44.687 79.7846 48.8682 84.2533 53.8088 87.886C53.7472 88.133 53.6914 88.3833 53.6418 88.6363C51.8558 97.7559 58.363 105.337 64.5832 111.627L65.8206 112.868C67.3328 114.374 68.8268 115.893 70.2257 117.487L70.8194 118.175C72.6611 120.348 76.4228 117.602 74.577 115.424L74.0587 114.825C68.6368 108.657 61.1301 103.375 58.7561 95.4454L58.5831 94.8194C58.2464 93.4906 58.0947 92.1197 58.1675 90.7605C58.8646 91.1722 59.5714 91.5705 60.2886 91.9517L61.0418 92.3444C69.5079 96.6784 78.9411 99.0662 88.5381 100.583L90.4599 100.875C98.0614 101.986 108.542 102.524 112.944 95.181ZM91.195 77.2573C98.3657 78.5644 109.286 81.997 109.567 90.006C109.818 97.1849 100.131 97.6167 94.5546 97.0335L92.8757 96.8457C84.4763 95.8486 76.0353 93.9446 68.3684 90.835L67.6958 90.5566C64.8208 89.3456 62.0212 87.8756 59.3951 86.1755C59.5343 85.9077 59.6845 85.6425 59.8491 85.3819C61.428 82.8812 63.9887 80.9608 66.7594 79.6078L67.3166 79.3451C74.6592 75.9895 83.4126 75.8388 91.195 77.2573ZM107.568 90.0758C107.465 87.1124 105.413 84.756 101.998 82.8693C98.6131 80.9994 94.335 79.8623 90.8365 79.2246C83.2901 77.8491 74.9898 78.0375 68.1483 81.164C65.7555 82.2575 63.6228 83.7413 62.1801 85.5539C64.3896 86.8593 66.72 88.0082 69.12 88.9817C77.0826 92.2111 85.9492 94.1224 94.7622 95.0441C97.4473 95.3249 100.954 95.3353 103.668 94.5159C105.012 94.1099 106.008 93.546 106.641 92.8589C107.227 92.2235 107.614 91.3696 107.568 90.0758Z" fill="#F7CC68"/>
<path d="M94.6335 197.699C97.1357 194.919 101.346 176.752 102.126 171.535C104.079 158.467 103.349 146.262 99.9846 133.446C98.2013 126.654 96.0704 119.956 94.4028 113.133C93.0882 107.754 91.5252 100.326 95.5609 95.585C98.4918 92.142 104.206 91.8676 107.756 94.3647C111.201 96.7873 113.072 100.819 114.792 104.662C116.357 108.159 117.922 111.656 119.488 115.153C119.869 116.004 120.272 116.885 120.983 117.487C122.923 119.129 125.863 117.914 128.049 116.617C138.336 110.513 147.8 103.133 158.08 97.0169C166.873 91.7853 176.86 86.1316 187.504 87.1918C197.864 88.2239 203.404 97.973 193.923 104.936C186.888 110.102 179.46 114.732 171.724 118.773C168.884 120.257 165.907 121.689 162.709 121.897C161.382 121.983 159.635 121.442 159.66 120.113C159.672 119.477 160.123 118.945 160.557 118.48C169.134 109.296 181.086 103.336 193.583 102.012C198.374 101.505 203.285 103.631 203.978 108.859C205.813 122.685 186.5 128.022 177.986 134.397C183.08 130.583 189.739 128.332 196.135 128.473C199.594 128.55 203.9 129.794 205.034 133.491C207.725 142.263 191.237 149.982 185.69 153.804C167.315 166.462 165.99 196.937 165.377 197.27C165.377 197.27 94.62 197.714 94.6335 197.699Z" fill="#FFEBD2"/>
<path d="M156.036 93.5788C164.639 88.4599 175.746 82.0008 187.901 83.2116C194.126 83.8317 199.606 87.1486 201.823 92.2438C202.85 94.6046 203.101 97.2408 202.4 99.8688C205.28 101.579 207.428 104.448 207.944 108.333C208.933 115.79 205.192 121.154 200.602 125.079C201.468 125.309 202.335 125.614 203.171 126.01C205.522 127.125 207.872 129.102 208.859 132.317C209.969 135.935 208.987 139.267 207.325 141.94C205.71 144.537 203.306 146.785 200.916 148.654C198.491 150.551 195.835 152.245 193.52 153.663C191.087 155.152 189.228 156.223 187.959 157.097C183.083 160.457 179.453 165.357 176.75 170.785C173.672 176.967 171.918 183.594 170.883 188.798C170.369 191.385 170.038 193.588 169.806 195.191C169.694 195.964 169.594 196.679 169.511 197.183C169.471 197.426 169.416 197.733 169.346 198.017C169.314 198.146 169.248 198.406 169.13 198.698C169.073 198.842 168.957 199.107 168.764 199.408C168.615 199.64 168.164 200.307 167.288 200.784C166.709 201.098 166.061 201.265 165.403 201.269L165.377 197.269C165.402 201.118 165.402 201.264 165.402 201.269H165.39C165.381 201.269 165.368 201.27 165.351 201.27C165.317 201.27 165.266 201.271 165.2 201.271C165.066 201.272 164.867 201.272 164.608 201.274C164.09 201.277 163.33 201.283 162.363 201.289C160.428 201.301 157.664 201.318 154.347 201.339C147.714 201.38 138.87 201.435 130.026 201.49C121.182 201.544 112.338 201.598 105.705 201.637C102.39 201.657 99.6261 201.674 97.6918 201.684C96.7249 201.69 95.964 201.694 95.4447 201.696C95.1859 201.697 94.985 201.699 94.8481 201.699H94.6176C94.6095 201.699 94.5825 201.699 94.5512 201.698C94.5307 201.697 94.4724 201.695 94.433 201.693C94.3078 201.685 90.8941 199.117 91.6615 195.022C91.5508 195.145 91.6854 195.019 92.0092 194.316C92.2917 193.703 92.6176 192.876 92.974 191.854C93.6849 189.816 94.44 187.232 95.1586 184.509C96.6029 179.038 97.8108 173.349 98.1703 170.944C100.041 158.427 99.3465 146.768 96.1156 134.462C94.4383 128.073 92.1623 120.811 90.518 114.083C89.8605 111.392 89.0346 107.801 88.976 104.184C88.9172 100.556 89.619 96.394 92.5151 92.9919C94.7928 90.3162 98.0161 89.0173 101.094 88.7604C104.159 88.5046 107.432 89.2452 110.058 91.0925C112.681 92.9378 114.942 96.3519 116.351 98.7136C117.117 99.9973 117.755 101.186 118.201 102.052C118.424 102.487 118.602 102.845 118.725 103.098C118.776 103.202 118.816 103.289 118.848 103.356C118.883 103.418 118.932 103.503 118.991 103.607C119.127 103.848 119.323 104.194 119.564 104.624C120.045 105.482 120.709 106.674 121.434 108.005C122.491 109.943 123.719 112.251 124.711 114.267C125.39 114.385 126.207 114.538 127.135 114.732C129.924 115.315 133.759 116.277 137.95 117.796C146.195 120.784 156.466 126.164 162.39 135.704C163.555 137.581 162.979 140.047 161.102 141.213C159.225 142.378 156.76 141.801 155.594 139.924C151.086 132.664 142.864 128.086 135.223 125.316C131.471 123.956 128.015 123.088 125.498 122.562C124.244 122.3 123.23 122.124 122.541 122.015C122.198 121.961 121.935 121.923 121.764 121.9C121.679 121.888 121.616 121.88 121.578 121.876C121.559 121.873 121.546 121.872 121.539 121.871L121.538 121.87V121.871C120.139 121.707 118.93 120.818 118.354 119.532C117.449 117.511 115.843 114.464 114.41 111.834C113.703 110.538 113.057 109.375 112.586 108.537C112.351 108.118 112.16 107.78 112.029 107.549C111.963 107.433 111.913 107.343 111.878 107.283C111.861 107.253 111.849 107.229 111.84 107.215C111.836 107.207 111.833 107.201 111.83 107.198C111.83 107.196 111.829 107.195 111.829 107.194L111.828 107.193C111.774 107.098 111.723 107.002 111.677 106.903V106.902C111.676 106.9 111.675 106.897 111.673 106.893C111.668 106.882 111.659 106.864 111.647 106.839C111.623 106.788 111.585 106.709 111.535 106.605C111.433 106.397 111.281 106.09 111.086 105.712C110.695 104.951 110.139 103.916 109.481 102.813C108.042 100.402 106.53 98.392 105.455 97.6364C104.532 96.9866 103.171 96.6152 101.759 96.7331C100.36 96.8499 99.26 97.4102 98.6068 98.1774C97.4674 99.5159 96.9326 101.438 96.975 104.054C97.0176 106.682 97.6314 109.495 98.2885 112.183C99.9793 119.101 101.965 125.235 103.854 132.43C107.352 145.755 108.118 158.508 106.082 172.127C105.662 174.938 104.375 180.941 102.894 186.551C102.236 189.044 101.521 191.526 100.807 193.666C102.233 193.657 103.864 193.648 105.658 193.637C112.289 193.598 121.132 193.544 129.976 193.49C138.82 193.435 147.664 193.38 154.297 193.339C157.439 193.319 160.085 193.302 161.999 193.29C162.234 191.707 162.561 189.629 163.037 187.237C164.142 181.677 166.071 174.286 169.589 167.219C172.679 161.015 177.086 154.874 183.421 150.509C184.926 149.473 187.209 148.146 189.343 146.84C191.595 145.461 193.934 143.96 195.988 142.353C198.077 140.719 199.638 139.152 200.531 137.716C201.376 136.355 201.446 135.431 201.21 134.664C201.063 134.183 200.694 133.689 199.744 133.238C198.744 132.764 197.397 132.502 196.047 132.472C191.203 132.366 186.095 133.884 181.92 136.538C181.366 136.894 180.853 137.247 180.383 137.598C178.615 138.922 176.108 138.562 174.784 136.794C173.501 135.08 173.8 132.674 175.427 131.322L175.589 131.194C175.752 131.073 175.916 130.951 176.084 130.831C176.679 130.403 177.291 129.995 177.918 129.605C179.835 128.396 181.958 127.245 183.994 126.143C187.016 124.507 189.98 122.91 192.611 121.117C197.988 117.452 200.614 113.917 200.013 109.384C199.838 108.068 199.211 107.273 198.294 106.735C198.24 106.703 198.183 106.673 198.125 106.642C197.559 107.169 196.948 107.677 196.29 108.16C189.092 113.446 181.492 118.183 173.577 122.318C170.767 123.786 167.106 125.618 162.968 125.887C161.76 125.966 160.275 125.784 158.934 125.134C157.567 124.472 155.609 122.863 155.662 120.039L155.669 119.818C155.806 117.56 157.35 116.054 157.634 115.75C166.868 105.862 179.708 99.459 193.162 98.0339H193.163C193.647 97.9826 194.139 97.9534 194.633 97.944C194.902 97.063 194.834 96.233 194.487 95.4352C193.713 93.6573 191.244 91.5836 187.108 91.1716C177.976 90.2619 169.108 95.1097 160.126 100.454C158.228 101.583 155.773 100.961 154.643 99.0622C153.513 97.1637 154.137 94.7084 156.036 93.5788ZM178.844 110.182C176.216 111.388 173.693 112.822 171.315 114.465C173.861 113.103 176.371 111.673 178.844 110.182Z" fill="#FEB64A"/>
<path d="M145.409 86.8542C147.124 87.4483 148.662 85.5921 147.751 84.0233L143.398 76.5422C143.111 76.0477 143.053 75.4539 143.242 74.9167L146.112 66.7288C146.712 65.0161 144.853 63.4881 143.282 64.4002L135.772 68.7645C135.28 69.0517 134.684 69.1111 134.143 68.9251L125.951 66.0869C124.236 65.4928 122.698 67.349 123.609 68.9178L127.961 76.3989C128.248 76.8896 128.306 77.4834 128.118 78.0244L125.25 86.2071C124.65 87.9198 126.504 89.4454 128.08 88.5358L135.589 84.1676C136.081 83.8804 136.678 83.8248 137.219 84.0108L145.411 86.849L145.409 86.8542Z" fill="#479EEF"/>
<path d="M121.222 61.3067C124.271 58.7015 115.625 39.2602 109.693 41.9623C103.76 44.6644 118.172 63.9119 121.222 61.3067Z" fill="#479EEF"/>
<path d="M110.169 66.8979C108.806 70.0473 93.0842 61.9028 94.3612 57.2189C95.6381 52.5349 111.722 61.4566 110.169 66.8979Z" fill="#8DCEFA"/>
<path d="M133.67 56.7268C138.913 56.3195 139.241 38.1674 133.998 38.5747C128.756 38.982 127.618 56.328 133.67 56.7268Z" fill="#FEB64A"/>
</svg>
