<svg width="300" height="300" viewBox="0 0 300 300" fill="none" xmlns="http://www.w3.org/2000/svg">
<path d="M239.086 131.777C241.887 132.894 245.098 132.816 247.958 131.584C250.818 130.353 253.079 128.075 254.193 125.273C255.311 122.469 255.189 119.371 253.907 116.639C252.94 114.558 251.894 112.491 250.794 110.472C231.459 74.516 192.554 49.4487 152.394 49.4709C150.164 49.4284 148.015 49.4486 145.783 49.5252C143.872 49.5966 142.044 50.4442 140.7 51.8449C139.356 53.2476 138.606 55.089 138.616 56.9999C138.626 58.9107 139.395 60.7443 140.753 62.1331C142.111 63.5199 143.948 64.348 145.859 64.3998C147.827 64.4557 149.709 64.5617 151.65 64.7215C186.425 67.0072 216.835 90.2062 230.866 120.604C231.643 122.277 232.366 123.969 233.012 125.635C234.115 128.444 236.282 130.662 239.086 131.777Z" fill="url(#paint0_linear_2810_1300)"/>
<path d="M140.758 60.4448C143.982 56.4865 141.684 50.5235 136.638 49.7525L108.915 45.5165C103.918 44.7529 99.9523 49.6606 101.748 54.3858L111.668 80.4807C113.473 85.2311 119.745 86.244 122.954 82.3037L140.758 60.4448Z" fill="#479EEF"/>
<path d="M128.021 67.9806C129.138 65.1791 129.06 61.9687 127.828 59.1085C126.597 56.2486 124.319 53.9872 121.517 52.873C118.713 51.7558 115.615 51.8771 112.883 53.1594C110.802 54.1265 108.735 55.1729 106.716 56.2729C70.7602 75.6076 45.6928 114.512 45.715 154.673C45.6726 156.902 45.6927 159.051 45.7693 161.284C45.8407 163.194 46.6883 165.022 48.089 166.366C49.4918 167.71 51.3331 168.46 53.244 168.45C55.1548 168.44 56.9884 167.672 58.3773 166.314C59.764 164.955 60.5921 163.119 60.6439 161.208C60.6999 159.239 60.8058 157.357 60.9657 155.416C63.2513 120.641 86.4504 90.2318 116.848 76.2009C118.521 75.4237 120.213 74.7008 121.879 74.0549C124.689 72.9512 126.906 70.7849 128.021 67.9806Z" fill="url(#paint1_linear_2810_1300)"/>
<path d="M53.7553 154.864C49.7971 151.64 43.8341 153.938 43.063 158.984L38.827 186.707C38.0635 191.704 42.9711 195.669 47.6964 193.873L73.7913 183.954C78.5416 182.148 79.5546 175.877 75.6142 172.667L53.7553 154.864Z" fill="#F7CC68"/>
<path d="M61.2911 167.6C58.4897 166.483 55.2793 166.561 52.419 167.793C49.5591 169.024 47.2977 171.302 46.1835 174.104C45.0663 176.908 45.1877 180.006 46.47 182.738C47.4371 184.819 48.4835 186.886 49.5834 188.905C68.9181 224.861 107.823 249.928 147.983 249.906C150.213 249.949 152.362 249.928 154.594 249.852C156.505 249.78 158.333 248.933 159.677 247.532C161.021 246.129 161.771 244.288 161.761 242.377C161.751 240.466 160.982 238.633 159.624 237.244C158.266 235.857 156.429 235.029 154.518 234.977C152.55 234.921 150.668 234.815 148.727 234.655C113.952 232.37 83.5424 209.171 69.5114 178.773C68.7343 177.1 68.0114 175.408 67.3654 173.742C66.2617 170.933 64.0954 168.715 61.2911 167.6Z" fill="url(#paint2_linear_2810_1300)"/>
<path d="M159.62 238.931C156.397 242.889 158.695 248.852 163.741 249.624L191.464 253.859C196.461 254.623 200.426 249.715 198.63 244.99L188.711 218.895C186.905 214.145 180.634 213.132 177.424 217.072L159.62 238.931Z" fill="#8DCEFA"/>
<path d="M172.357 231.396C171.241 234.198 171.319 237.408 172.551 240.268C173.782 243.128 176.06 245.39 178.862 246.504C181.666 247.621 184.764 247.5 187.496 246.218C189.576 245.25 191.644 244.204 193.663 243.104C229.619 223.769 254.686 184.865 254.664 144.704C254.706 142.475 254.686 140.326 254.61 138.093C254.538 136.183 253.691 134.355 252.29 133.011C250.887 131.667 249.046 130.917 247.135 130.927C245.224 130.936 243.39 131.705 242.002 133.063C240.615 134.422 239.787 136.258 239.735 138.169C239.679 140.137 239.573 142.02 239.413 143.961C237.128 178.736 213.929 209.145 183.531 223.176C181.858 223.953 180.166 224.676 178.5 225.322C175.69 226.426 173.473 228.592 172.357 231.396Z" fill="url(#paint3_linear_2810_1300)"/>
<path d="M246.621 144.516C250.579 147.74 256.542 145.442 257.313 140.395L261.549 112.672C262.312 107.675 257.405 103.71 252.68 105.506L226.585 115.425C221.834 117.231 220.821 123.503 224.762 126.712L246.621 144.516Z" fill="#FEB840"/>
<path d="M88.7592 133.315C101.329 128.376 117.705 140.115 125.334 159.534C125.485 159.918 125.629 160.302 125.771 160.687C125.8 160.766 125.829 160.845 125.857 160.923C125.917 161.086 125.976 161.248 126.034 161.411C126.089 161.566 126.142 161.721 126.195 161.876C126.19 161.86 126.184 161.844 126.178 161.828C126.192 161.869 126.206 161.91 126.22 161.95C126.211 161.926 126.204 161.9 126.195 161.876C126.223 161.957 126.252 162.039 126.28 162.12C126.312 162.214 126.343 162.308 126.374 162.402C126.442 162.606 126.51 162.81 126.575 163.015C126.598 163.085 126.621 163.154 126.643 163.224C126.661 163.283 126.679 163.341 126.697 163.4C126.707 163.433 126.718 163.466 126.728 163.5C126.777 163.656 126.825 163.812 126.873 163.968C132.301 181.874 128.001 199.074 116.388 203.637C103.818 208.575 87.4439 196.837 79.8145 177.418C72.1851 157.999 76.1898 138.254 88.7592 133.315Z" fill="#98A2B3"/>
<path d="M102.765 127.812C113.776 123.486 127.708 131.957 136.122 147.178L158.625 138.336C154.428 121.459 158.867 105.77 169.878 101.444C182.448 96.5056 198.822 108.244 206.452 127.663C206.593 128.024 206.73 128.384 206.864 128.745C206.907 128.863 206.95 128.981 206.993 129.099C207.046 129.246 207.101 129.393 207.153 129.54C207.207 129.693 207.26 129.847 207.313 130.001C207.386 130.212 207.457 130.424 207.528 130.636C207.572 130.769 207.615 130.902 207.658 131.036C207.729 131.254 207.799 131.473 207.867 131.692C207.908 131.823 207.949 131.954 207.988 132.085C208.033 132.232 208.075 132.378 208.118 132.525C208.142 132.605 208.165 132.685 208.188 132.765C208.523 133.921 208.818 135.073 209.073 136.219C209.089 136.292 209.105 136.365 209.121 136.438C212.672 152.712 208.177 167.574 197.507 171.766C186.902 175.933 173.587 168.229 165.102 154.056L142.077 163.103C145.508 179.261 140.999 193.968 130.394 198.134L123.925 200.676C127.094 197.256 129.221 192.622 130.28 187.398C131.982 179.009 131.014 168.845 127.085 158.846C123.157 148.846 116.946 140.742 109.99 135.755C105.658 132.649 100.946 130.702 96.2962 130.354L102.765 127.812Z" fill="#98A2B3"/>
<path d="M183.884 95.9414C196.453 91.003 212.829 102.741 220.459 122.16C228.088 141.579 224.082 161.325 211.512 166.264L205.044 168.805C208.213 165.385 210.34 160.751 211.399 155.527C213.1 147.139 212.133 136.974 208.204 126.975C204.276 116.976 198.065 108.871 191.109 103.884C186.777 100.778 182.065 98.8312 177.415 98.4828L183.884 95.9414Z" fill="#98A2B3"/>
<ellipse cx="102.849" cy="170.866" rx="12.3676" ry="19.6758" transform="rotate(-21.4494 102.849 170.866)" fill="black"/>
<defs>
<linearGradient id="paint0_linear_2810_1300" x1="239.085" y1="119.57" x2="76.8835" y2="38.1732" gradientUnits="userSpaceOnUse">
<stop stop-color="#FEB840"/>
<stop offset="1" stop-color="white" stop-opacity="0"/>
</linearGradient>
<linearGradient id="paint1_linear_2810_1300" x1="115.814" y1="67.981" x2="45.597" y2="229.436" gradientUnits="userSpaceOnUse">
<stop stop-color="#479EEF"/>
<stop offset="1" stop-color="white" stop-opacity="0"/>
</linearGradient>
<linearGradient id="paint2_linear_2810_1300" x1="61.2915" y1="179.807" x2="211.233" y2="248.123" gradientUnits="userSpaceOnUse">
<stop stop-color="#F7CC67"/>
<stop offset="1" stop-color="white" stop-opacity="0"/>
</linearGradient>
<linearGradient id="paint3_linear_2810_1300" x1="184.565" y1="231.396" x2="266.902" y2="88.782" gradientUnits="userSpaceOnUse">
<stop stop-color="#8DCEFA"/>
<stop offset="1" stop-color="white" stop-opacity="0"/>
</linearGradient>
</defs>
</svg>
