<svg width="300" height="300" viewBox="0 0 300 300" fill="none" xmlns="http://www.w3.org/2000/svg">
<path d="M154.568 172.225C168.855 170.122 181.773 157.677 191.585 138.459C201.292 136.658 210.159 129.812 216.956 118.72C224.511 106.389 228.701 90.0646 228.749 72.7621C228.749 70.2356 226.712 68.1737 224.177 68.1737H209.735C209.735 68.1737 209.735 68.1003 209.744 68.0596C210.224 62.0938 205.481 57 199.491 57H101.006C95.0157 57 90.2724 62.0938 90.7532 68.0596V68.1737H76.5722C74.0457 68.1737 71.9919 70.2275 72 72.754C72.0489 90.0565 76.238 106.381 83.7931 118.712C90.525 129.698 99.2863 136.528 108.879 138.402C118.545 157.343 131.218 169.707 145.244 172.103L154.552 172.217L154.568 172.225ZM91.6008 113.944C85.5698 104.091 81.9594 91.2301 81.2748 77.318H91.6823C93.8665 95.6882 97.9986 112.453 103.598 126.634C99.2048 123.969 95.1135 119.682 91.6008 113.944ZM209.165 113.944C205.563 119.829 201.357 124.189 196.834 126.829C202.474 112.616 206.63 95.7697 208.831 77.318H219.499C218.815 91.2301 215.204 104.091 209.173 113.944H209.165Z" fill="#F7CC68"/>
<path d="M118.804 135.583C117.101 135.583 115.495 134.556 114.827 132.877C107.964 115.501 102.977 94.8736 100.401 73.2109C100.124 70.8718 101.795 68.7446 104.134 68.4675C106.481 68.1904 108.6 69.8612 108.877 72.2003C111.371 93.1377 116.171 113.032 122.765 129.739C123.629 131.932 122.553 134.418 120.361 135.281C119.847 135.485 119.317 135.583 118.796 135.583H118.804Z" fill="#FBE5A0"/>
<path d="M164.723 158.777L150.379 172.152L136.035 158.777C136.035 158.777 138.936 196.536 128.586 209.242H172.172C161.822 196.545 164.723 158.777 164.723 158.777Z" fill="#F7CC68"/>
<path d="M182.04 224.548H115.764L113.727 216.577C115.234 209.829 120.679 208.606 127.59 208.606H173.173C180.084 208.606 185.096 210.457 186.604 217.205L182.048 224.54L182.04 224.548Z" fill="#F7CC68"/>
<path d="M186.768 217.091C186.768 217.091 176.808 222.421 150.443 222.421C119.799 222.421 113.776 216.634 113.719 216.577C113.719 216.577 111.054 224.409 109.025 230.359C107.818 233.904 109.432 237.164 113.018 238.11C121.494 240.359 133.63 242.022 150.508 242.022C167.387 242.022 178.667 240.465 187.077 238.338C190.68 237.425 192.342 234.189 191.185 230.644L186.768 217.091Z" fill="#479EEF"/>
<path d="M163.49 132.306L151.282 127.416L139.162 132.518C136.962 133.447 134.558 131.727 134.713 129.348L135.593 116.226L126.995 106.275C125.43 104.466 126.326 101.646 128.641 101.067L141.396 97.8478L148.209 86.5926C149.448 84.547 152.398 84.5225 153.67 86.5437L160.67 97.6766L173.474 100.676C175.797 101.222 176.734 104.026 175.21 105.859L166.783 115.957L167.883 129.062C168.087 131.442 165.707 133.203 163.49 132.314V132.306Z" fill="#EE7F3D"/>
</svg>
