<svg width="300" height="300" viewBox="0 0 300 300" fill="none" xmlns="http://www.w3.org/2000/svg">
<path d="M139.399 226.394C138.563 219.261 144.136 212.996 151.317 212.996H154.005C161.186 212.996 166.76 219.261 165.924 226.393L163.2 249.625C162.573 254.971 158.043 259 152.661 259C147.279 259 142.75 254.971 142.123 249.625L139.399 226.394Z" fill="#F5C062"/>
<path d="M131.025 220.91L65.6836 140.607H240.31L174.395 220.992C163.165 234.687 142.202 234.647 131.025 220.91Z" fill="#479EEF"/>
<ellipse cx="152.66" cy="137.903" rx="87.6502" ry="32.4734" fill="#8DCEFA"/>
<ellipse cx="152.659" cy="137.564" rx="66.749" ry="18.6046" fill="white"/>
<mask id="mask0_2810_1200" style="mask-type:alpha" maskUnits="userSpaceOnUse" x="85" y="118" width="135" height="39">
<ellipse cx="152.661" cy="137.564" rx="66.749" ry="18.6046" fill="white"/>
</mask>
<g mask="url(#mask0_2810_1200)">
<ellipse cx="186.118" cy="147.572" rx="18.5085" ry="18.5715" fill="#FCDB61"/>
</g>
<ellipse cx="121.339" cy="124.001" rx="18.5085" ry="18.5715" fill="#98A2B3"/>
<ellipse cx="167.61" cy="99.0012" rx="18.5085" ry="18.5715" fill="#FEB840"/>
<ellipse cx="134.15" cy="54.0001" rx="14.9491" ry="15.0001" fill="#F5C062"/>
<path d="M115.254 76.4918C116.884 74.9149 115.682 72.1517 113.419 72.2819L102.618 72.9122C101.904 72.954 101.209 72.6832 100.717 72.1688L93.206 64.3454C91.6348 62.7089 88.8808 63.9202 89.0111 66.1871L89.6387 77.0261C89.6809 77.7376 89.411 78.435 88.8978 78.934L81.1075 86.4679C79.4769 88.0447 80.6787 90.8079 82.9426 90.6777L93.743 90.0474C94.4519 90.005 95.1468 90.2758 95.644 90.7908L103.151 98.6087C104.722 100.245 107.47 99.0382 107.346 96.7669L106.713 85.9272C106.671 85.2158 106.946 84.519 107.459 84.02L115.249 76.4861L115.254 76.4918Z" fill="#479EEF"/>
<path d="M235.004 113.842C237.102 114.084 238.37 111.578 236.935 110.022L230.08 102.599C229.626 102.109 229.409 101.447 229.486 100.786L230.641 90.7264C230.883 88.6222 228.382 87.3524 226.834 88.7904L219.435 95.6694C218.95 96.1216 218.29 96.3403 217.628 96.2657L207.609 95.109C205.511 94.8668 204.243 97.3725 205.678 98.9294L212.533 106.352C212.984 106.838 213.202 107.5 213.127 108.165L211.973 118.218C211.731 120.322 214.226 121.591 215.78 120.154L223.177 113.271C223.662 112.819 224.324 112.604 224.986 112.679L235.006 113.835L235.004 113.842Z" fill="#F5C062"/>
<path d="M223.443 85.1191C228.324 80.586 236.124 84.4593 235.631 90.981L235.602 91.2934L234.589 100.107L240.6 106.617L240.603 106.62C245.169 111.572 241.146 119.592 234.426 118.816L228.914 118.18L228.916 118.173L225.649 117.795L219.175 123.822L219.168 123.828L219.161 123.834C214.209 128.411 206.24 124.374 207.013 117.651L208.024 108.842L202.012 102.334L202.01 102.331C197.444 97.3786 201.466 89.3587 208.186 90.1346L216.959 91.1477L223.442 85.1209L223.443 85.1191ZM230.642 90.7271C230.883 88.6229 228.382 87.3529 226.834 88.7907L219.435 95.6695C218.95 96.1216 218.29 96.3411 217.628 96.2665L207.609 95.1088C205.577 94.8742 204.323 97.2183 205.551 98.7805L205.679 98.9298L212.533 106.352C212.984 106.838 213.202 107.5 213.127 108.164L211.973 118.218C211.739 120.257 214.073 121.511 215.632 120.282L215.78 120.154L223.176 113.272C223.661 112.819 224.324 112.605 224.986 112.68L235.006 113.836L235.004 113.843C237.101 114.085 238.37 111.579 236.934 110.022L230.079 102.6C229.626 102.109 229.408 101.447 229.485 100.786L230.642 90.7271ZM208.868 109.757L208.866 109.752C208.868 109.755 208.87 109.759 208.873 109.762L208.868 109.757Z" fill="#F8D46E"/>
<path d="M182.699 70.6614C187.491 72.1377 202.23 49.999 195.407 45.5439C188.584 41.0888 177.908 69.185 182.699 70.6614Z" fill="#479EEF"/>
<path d="M70.9341 91.2944C70.7607 87.7755 52.3195 86.9445 53.7764 92.7285C55.2337 98.5138 71.208 96.8607 70.9341 91.2944Z" fill="#FEB64A"/>
<path d="M77.196 101.721C80.8302 104.001 67.9032 121.95 62.3609 119.488C56.8186 117.025 70.7703 98.7741 77.196 101.721Z" fill="#8DCEFA"/>
<path d="M171.578 65.19C167.802 67.2254 158.682 47.0586 163.563 43.4514C168.443 39.8443 177.315 61.0534 171.578 65.19Z" fill="#8DCEFA"/>
<path d="M197.729 81.9319C202.713 86.2177 219.085 70.5033 214.102 66.2176C209.119 61.9318 192.746 76.2176 197.729 81.9319Z" fill="#FEB64A"/>
</svg>
