<svg width="32" height="37" viewBox="0 0 32 37" fill="none" xmlns="http://www.w3.org/2000/svg">
<path d="M1.03746 28.3193C1.84232 30.9976 4.04792 33.022 6.78403 33.5986L18.8152 36.1354C21.7377 36.7516 24.7675 35.621 26.5337 33.2128C43.6534 9.87181 -7.83961 -1.20979 1.03746 28.3193Z" fill="#479EEF"/>
<path d="M20.5592 35.0927C20.5227 35.0927 20.4852 35.0852 20.4499 35.0713C20.3802 35.0423 13.4451 32.2076 5.67511 31.9558C5.51757 31.9504 5.39325 31.8186 5.3986 31.66C5.40396 31.5024 5.539 31.3781 5.6944 31.3835C13.5715 31.6385 20.5988 34.5129 20.6696 34.5418C20.8153 34.6018 20.885 34.7701 20.825 34.9159C20.7789 35.0262 20.6728 35.0927 20.5602 35.0927H20.5592Z" fill="black"/>
<path d="M22.1481 24.4466C22.8438 21.1484 20.2058 17.7992 16.256 16.9662C12.3061 16.1331 8.54022 18.1315 7.84456 21.4298C7.1489 24.7281 9.78693 28.0772 13.7368 28.9103C17.6866 29.7434 21.4525 27.7449 22.1481 24.4466Z" fill="white"/>
<path d="M16.0532 17.9279C12.7242 17.2257 9.5674 18.9117 8.98553 21.6704C8.40367 24.4292 10.6107 27.2466 13.9396 27.9487C17.2686 28.6508 20.4254 26.9647 21.0072 24.206C21.5891 21.4473 19.3821 18.63 16.0532 17.9279ZM16.0753 17.823C19.4436 18.5334 21.7097 21.3946 21.1121 24.2281C20.5144 27.0617 17.2859 28.764 13.9175 28.0536C10.5491 27.3431 8.28302 24.4819 8.88066 21.6483C9.47832 18.8148 12.7069 17.1126 16.0753 17.823Z" fill="black"/>
<path d="M30.6661 12.8009C30.3081 13.4514 29.8462 14.0409 29.2943 14.5392L24.3847 18.974L21.9358 16.2615L26.8454 11.8289C27.1755 11.5309 27.4402 11.1451 27.6224 10.7164C27.7885 10.3231 27.8849 9.89118 27.8957 9.45285C27.9289 8.14642 27.2098 7.0404 26.1831 6.82391L11.3483 3.69556C10.4748 3.51122 9.53815 3.99457 8.96478 4.9259L8.84046 5.12738C8.59932 5.51856 8.44178 5.95689 8.37319 6.40809C8.29924 6.88822 8.32603 7.38014 8.46 7.83883L10.0858 13.3914L6.57913 14.4171L4.95333 8.86554C4.79364 8.31897 4.70576 7.75095 4.68754 7.1808C4.64146 5.80042 4.99941 4.39647 5.72925 3.21114L5.85357 3.01073C7.24788 0.747256 9.69998 -0.386625 12.1017 0.119227L26.9365 3.24758C29.6865 3.82738 31.6274 6.47668 31.5481 9.54609C31.517 10.7025 31.2094 11.8214 30.665 12.8009H30.6661Z" fill="#479EEF"/>
<path d="M30.6661 12.8007L27.6224 10.7151C27.7885 10.3218 27.8849 9.88987 27.8957 9.45154C27.9289 8.14511 27.2098 7.03909 26.1831 6.82261L11.3483 3.69425C10.4748 3.50992 9.53815 3.99326 8.96478 4.92459L8.84046 5.12607C8.59932 5.51725 8.44178 5.95558 8.37319 6.40678L4.68754 7.17842C4.64146 5.79804 4.99941 4.39409 5.72925 3.20876L5.85357 3.00835C7.24788 0.74702 9.69998 -0.386861 12.1017 0.118992L26.9365 3.24735C29.6865 3.82715 31.6274 6.47644 31.5481 9.54585C31.517 10.7022 31.2094 11.8211 30.665 12.8007H30.6661Z" fill="black"/>
<path d="M25.2837 18.3308L25.1915 18.3265C24.5549 18.2965 23.5132 17.7949 22.942 17.0372C22.5787 16.556 22.4511 16.0319 22.5712 15.5218L22.5915 15.436L23.6182 14.4983C23.735 14.3911 23.9162 14.3997 24.0223 14.5165C24.1284 14.6333 24.1209 14.8144 24.0041 14.9205L23.1113 15.735C23.062 16.0523 23.1585 16.3738 23.3985 16.6921C23.8229 17.2558 24.6235 17.6813 25.1315 17.7467L25.8078 17.3073C25.9407 17.2215 26.1175 17.259 26.2032 17.3909C26.289 17.5238 26.2515 17.7006 26.1196 17.7863L25.2837 18.3297V18.3308Z" fill="black"/>
<path d="M3.14002 19.7305C3.89558 15.1757 7.48692 13.8307 9.19524 13.4449C9.74182 13.3216 10.2991 13.6089 10.5081 14.1287C10.6881 14.5766 10.8821 15.1886 10.9861 15.9195C11.0836 16.6022 10.5553 17.2088 9.86507 17.2238C6.71099 17.2924 4.85263 18.8528 3.88058 20.0638C3.6105 20.4004 3.06928 20.1571 3.13894 19.7316L3.14002 19.7305Z" fill="#8DCEFA"/>
<path d="M6.75948 20.188C5.25478 18.8752 2.41472 21.7903 3.55075 23.325C4.68677 24.8597 8.07662 21.3369 6.75948 20.188Z" fill="#8DCEFA"/>
<path d="M26.8221 27.3857C28.2529 28.9515 25.8372 34.7345 22.8021 34.0593C19.767 33.3841 25.7032 26.1618 26.8221 27.3857Z" fill="#8DCEFA"/>
<path d="M7.64219 13.8734C7.02916 13.8734 6.54796 13.7855 6.49974 13.7759L6.3647 13.7502L6.02175 13.1061C5.9478 12.9667 6.00031 12.7931 6.14071 12.7192C6.2811 12.6452 6.45365 12.6977 6.5276 12.8381L6.73873 13.2357C7.25423 13.3097 9.12974 13.5015 9.74169 12.522L9.45661 11.6732C9.40624 11.5231 9.48662 11.3613 9.63666 11.3109C9.7867 11.2606 9.94853 11.3409 9.9989 11.491L10.3622 12.5723L10.3097 12.6784C9.81457 13.6698 8.57459 13.8734 7.64219 13.8734Z" fill="black"/>
<path d="M18.7126 23.9928C18.6837 23.9767 18.6483 23.9874 18.6312 24.0153C18.1414 24.8448 17.4405 25.2349 16.6785 24.9884C16.1351 24.8127 15.8554 24.3411 15.8672 23.8085C16.5906 23.2651 17.4137 22.4699 18.3493 21.3178C18.3707 21.2921 18.3664 21.2535 18.3407 21.232L17.7963 20.7916C17.7706 20.7701 17.7331 20.7744 17.7116 20.8001C17.105 21.5471 16.4245 22.2866 15.8533 22.7646C15.8661 21.3724 15.5028 20.1903 14.1417 19.8849C13.0035 19.6287 11.7186 20.0821 10.9737 21.5803C10.4175 22.6949 10.619 24.4011 12.3348 24.7859C13.0475 24.9455 13.9413 24.9273 15.0838 24.2532C15.1974 24.9155 15.6871 25.5393 16.5927 25.7429C17.642 25.9787 18.7019 25.5082 19.3428 24.4247C19.3599 24.3947 19.3503 24.3572 19.3203 24.3411L18.7126 23.9949V23.9928ZM12.5041 24.0335C11.4506 23.7967 11.3274 22.7089 11.7078 21.9469C12.2726 20.8194 13.2136 20.4679 13.9456 20.6329C14.6068 20.7808 15.2016 21.5182 15.0152 23.3411C14.1149 23.9574 13.264 24.205 12.5041 24.0335Z" fill="black"/>
</svg>
